<?xml version="1.0" encoding="UTF-8" standalone="no"?>
<!DOCTYPE svg PUBLIC "-//W3C//DTD SVG 1.1//EN"
 "http://www.w3.org/Graphics/SVG/1.1/DTD/svg11.dtd">
<!-- Generated by graphviz version 2.44.0 (0)
 -->
<!-- Title: snakemake_dag Pages: 1 -->
<svg width="904pt" height="404pt"
 viewBox="0.00 0.00 903.50 404.00" xmlns="http://www.w3.org/2000/svg" xmlns:xlink="http://www.w3.org/1999/xlink">
<g id="graph0" class="graph" transform="scale(1 1) rotate(0) translate(4 400)">
<title>snakemake_dag</title>
<polygon fill="white" stroke="transparent" points="-4,4 -4,-400 899.5,-400 899.5,4 -4,4"/>
<!-- 0 -->
<g id="node1" class="node">
<title>0</title>
<path fill="none" stroke="#d85656" stroke-width="2" d="M326,-36C326,-36 296,-36 296,-36 290,-36 284,-30 284,-24 284,-24 284,-12 284,-12 284,-6 290,0 296,0 296,0 326,0 326,0 332,0 338,-6 338,-12 338,-12 338,-24 338,-24 338,-30 332,-36 326,-36"/>
<text text-anchor="middle" x="311" y="-15.5" font-family="sans" font-size="10.00">all</text>
</g>
<!-- 1 -->
<g id="node2" class="node">
<title>1</title>
<path fill="none" stroke="#d89c56" stroke-width="2" d="M532,-396C532,-396 458,-396 458,-396 452,-396 446,-390 446,-384 446,-384 446,-372 446,-372 446,-366 452,-360 458,-360 458,-360 532,-360 532,-360 538,-360 544,-366 544,-372 544,-372 544,-384 544,-384 544,-390 538,-396 532,-396"/>
<text text-anchor="middle" x="495" y="-375.5" font-family="sans" font-size="10.00">cellranger_count</text>
</g>
<!-- 1&#45;&gt;0 -->
<g id="edge6" class="edge">
<title>1&#45;&gt;0</title>
<path fill="none" stroke="grey" stroke-width="2" d="M445.71,-374.23C352.93,-368.4 156.17,-352.97 95,-324 42.71,-299.24 0,-292.86 0,-235 0,-235 0,-235 0,-161 0,-117.99 4.54,-99.03 38,-72 73.83,-43.06 207.89,-27.82 273.86,-21.93"/>
<polygon fill="grey" stroke="grey" stroke-width="2" points="274.18,-25.42 283.84,-21.07 273.57,-18.44 274.18,-25.42"/>
</g>
<!-- 3 -->
<g id="node4" class="node">
<title>3</title>
<path fill="none" stroke="#56c9d8" stroke-width="2" d="M238,-324C238,-324 116,-324 116,-324 110,-324 104,-318 104,-312 104,-312 104,-300 104,-300 104,-294 110,-288 116,-288 116,-288 238,-288 238,-288 244,-288 250,-294 250,-300 250,-300 250,-312 250,-312 250,-318 244,-324 238,-324"/>
<text text-anchor="middle" x="177" y="-303.5" font-family="sans" font-size="10.00">tenx_harmony_integration</text>
</g>
<!-- 1&#45;&gt;3 -->
<g id="edge11" class="edge">
<title>1&#45;&gt;3</title>
<path fill="none" stroke="grey" stroke-width="2" d="M445.66,-366.14C396.19,-355.25 319.1,-338.28 260.16,-325.31"/>
<polygon fill="grey" stroke="grey" stroke-width="2" points="260.64,-321.83 250.12,-323.1 259.13,-328.66 260.64,-321.83"/>
</g>
<!-- 5 -->
<g id="node6" class="node">
<title>5</title>
<path fill="none" stroke="#d8b456" stroke-width="2" d="M550,-180C550,-180 440,-180 440,-180 434,-180 428,-174 428,-168 428,-168 428,-156 428,-156 428,-150 434,-144 440,-144 440,-144 550,-144 550,-144 556,-144 562,-150 562,-156 562,-156 562,-168 562,-168 562,-174 556,-180 550,-180"/>
<text text-anchor="middle" x="495" y="-159.5" font-family="sans" font-size="10.00">collect_web_summaries</text>
</g>
<!-- 1&#45;&gt;5 -->
<g id="edge13" class="edge">
<title>1&#45;&gt;5</title>
<path fill="none" stroke="grey" stroke-width="2" d="M495,-359.85C495,-322.83 495,-235.18 495,-190.39"/>
<polygon fill="grey" stroke="grey" stroke-width="2" points="498.5,-190.23 495,-180.23 491.5,-190.23 498.5,-190.23"/>
</g>
<!-- 6 -->
<g id="node7" class="node">
<title>6</title>
<path fill="none" stroke="#78d856" stroke-width="2" d="M692,-180C692,-180 592,-180 592,-180 586,-180 580,-174 580,-168 580,-168 580,-156 580,-156 580,-150 586,-144 592,-144 592,-144 692,-144 692,-144 698,-144 704,-150 704,-156 704,-156 704,-168 704,-168 704,-174 698,-180 692,-180"/>
<text text-anchor="middle" x="642" y="-159.5" font-family="sans" font-size="10.00">plot_filtering_timeline</text>
</g>
<!-- 1&#45;&gt;6 -->
<g id="edge14" class="edge">
<title>1&#45;&gt;6</title>
<path fill="none" stroke="grey" stroke-width="2" d="M506.78,-359.85C532.53,-322.36 593.95,-232.95 624.34,-188.7"/>
<polygon fill="grey" stroke="grey" stroke-width="2" points="627.39,-190.46 630.16,-180.23 621.62,-186.49 627.39,-190.46"/>
</g>
<!-- 11 -->
<g id="node12" class="node">
<title>11</title>
<path fill="none" stroke="#61d856" stroke-width="2" d="M727.5,-324C727.5,-324 610.5,-324 610.5,-324 604.5,-324 598.5,-318 598.5,-312 598.5,-312 598.5,-300 598.5,-300 598.5,-294 604.5,-288 610.5,-288 610.5,-288 727.5,-288 727.5,-288 733.5,-288 739.5,-294 739.5,-300 739.5,-300 739.5,-312 739.5,-312 739.5,-318 733.5,-324 727.5,-324"/>
<text text-anchor="middle" x="669" y="-303.5" font-family="sans" font-size="10.00">prep_cellranger_aggr_csv</text>
</g>
<!-- 1&#45;&gt;11 -->
<g id="edge20" class="edge">
<title>1&#45;&gt;11</title>
<path fill="none" stroke="grey" stroke-width="2" d="M537.57,-359.88C561.56,-350.22 591.73,-338.09 617.1,-327.88"/>
<polygon fill="grey" stroke="grey" stroke-width="2" points="618.6,-331.05 626.57,-324.07 615.99,-324.55 618.6,-331.05"/>
</g>
<!-- 2 -->
<g id="node3" class="node">
<title>2</title>
<path fill="none" stroke="#a7d856" stroke-width="2" d="M883.5,-108C883.5,-108 772.5,-108 772.5,-108 766.5,-108 760.5,-102 760.5,-96 760.5,-96 760.5,-84 760.5,-84 760.5,-78 766.5,-72 772.5,-72 772.5,-72 883.5,-72 883.5,-72 889.5,-72 895.5,-78 895.5,-84 895.5,-84 895.5,-96 895.5,-96 895.5,-102 889.5,-108 883.5,-108"/>
<text text-anchor="middle" x="828" y="-87.5" font-family="sans" font-size="10.00">multi_sample_summary</text>
</g>
<!-- 2&#45;&gt;0 -->
<g id="edge4" class="edge">
<title>2&#45;&gt;0</title>
<path fill="none" stroke="grey" stroke-width="2" d="M760.07,-74.46C755.32,-73.59 750.59,-72.75 746,-72 599.67,-47.96 424,-29.8 348.49,-22.51"/>
<polygon fill="grey" stroke="grey" stroke-width="2" points="348.38,-18.98 338.09,-21.51 347.71,-25.95 348.38,-18.98"/>
</g>
<!-- 3&#45;&gt;0 -->
<g id="edge9" class="edge">
<title>3&#45;&gt;0</title>
<path fill="none" stroke="grey" stroke-width="2" d="M155.5,-287.79C107.26,-247.16 -0.98,-143.32 57,-72 83.92,-38.89 210.1,-25.76 273.89,-21.17"/>
<polygon fill="grey" stroke="grey" stroke-width="2" points="274.2,-24.66 283.93,-20.48 273.72,-17.67 274.2,-24.66"/>
</g>
<!-- 4 -->
<g id="node5" class="node">
<title>4</title>
<path fill="none" stroke="#569ad8" stroke-width="2" d="M192,-108C192,-108 78,-108 78,-108 72,-108 66,-102 66,-96 66,-96 66,-84 66,-84 66,-78 72,-72 78,-72 78,-72 192,-72 192,-72 198,-72 204,-78 204,-84 204,-84 204,-96 204,-96 204,-102 198,-108 192,-108"/>
<text text-anchor="middle" x="135" y="-87.5" font-family="sans" font-size="10.00">tenx_harmony_notebook</text>
</g>
<!-- 3&#45;&gt;4 -->
<g id="edge12" class="edge">
<title>3&#45;&gt;4</title>
<path fill="none" stroke="grey" stroke-width="2" d="M163.9,-287.99C147.09,-265 118.82,-222.01 108,-180 104.01,-164.51 104.27,-159.56 108,-144 110.21,-134.81 114.29,-125.41 118.62,-117.13"/>
<polygon fill="grey" stroke="grey" stroke-width="2" points="121.72,-118.77 123.53,-108.33 115.6,-115.36 121.72,-118.77"/>
</g>
<!-- 8 -->
<g id="node9" class="node">
<title>8</title>
<path fill="none" stroke="#56d87b" stroke-width="2" d="M255,-252C255,-252 183,-252 183,-252 177,-252 171,-246 171,-240 171,-240 171,-228 171,-228 171,-222 177,-216 183,-216 183,-216 255,-216 255,-216 261,-216 267,-222 267,-228 267,-228 267,-240 267,-240 267,-246 261,-252 255,-252"/>
<text text-anchor="middle" x="219" y="-231.5" font-family="sans" font-size="10.00">save_raw_adata</text>
</g>
<!-- 3&#45;&gt;8 -->
<g id="edge16" class="edge">
<title>3&#45;&gt;8</title>
<path fill="none" stroke="grey" stroke-width="2" d="M187.38,-287.7C192.26,-279.56 198.19,-269.69 203.58,-260.7"/>
<polygon fill="grey" stroke="grey" stroke-width="2" points="206.59,-262.48 208.74,-252.1 200.59,-258.88 206.59,-262.48"/>
</g>
<!-- 4&#45;&gt;0 -->
<g id="edge5" class="edge">
<title>4&#45;&gt;0</title>
<path fill="none" stroke="grey" stroke-width="2" d="M178.05,-71.88C207.64,-60.11 246.49,-44.66 274.55,-33.5"/>
<polygon fill="grey" stroke="grey" stroke-width="2" points="275.99,-36.69 283.99,-29.74 273.4,-30.19 275.99,-36.69"/>
</g>
<!-- 5&#45;&gt;0 -->
<g id="edge1" class="edge">
<title>5&#45;&gt;0</title>
<path fill="none" stroke="grey" stroke-width="2" d="M482.91,-143.84C468.63,-124.51 443.34,-93.05 416,-72 395.09,-55.9 368.54,-42.55 347.37,-33.28"/>
<polygon fill="grey" stroke="grey" stroke-width="2" points="348.63,-30.01 338.06,-29.31 345.89,-36.45 348.63,-30.01"/>
</g>
<!-- 6&#45;&gt;0 -->
<g id="edge8" class="edge">
<title>6&#45;&gt;0</title>
<path fill="none" stroke="grey" stroke-width="2" d="M606.74,-143.9C568.28,-125.44 504.75,-95.53 449,-72 414.95,-57.63 375.53,-42.65 347.57,-32.3"/>
<polygon fill="grey" stroke="grey" stroke-width="2" points="348.77,-29.02 338.18,-28.84 346.35,-35.58 348.77,-29.02"/>
</g>
<!-- 7 -->
<g id="node8" class="node">
<title>7</title>
<path fill="none" stroke="#d8c356" stroke-width="2" d="M360,-180C360,-180 162,-180 162,-180 156,-180 150,-174 150,-168 150,-168 150,-156 150,-156 150,-150 156,-144 162,-144 162,-144 360,-144 360,-144 366,-144 372,-150 372,-156 372,-156 372,-168 372,-168 372,-174 366,-180 360,-180"/>
<text text-anchor="middle" x="261" y="-159.5" font-family="sans" font-size="10.00">convert_harmony_integrated_h5ad_to_rds</text>
</g>
<!-- 7&#45;&gt;0 -->
<g id="edge3" class="edge">
<title>7&#45;&gt;0</title>
<path fill="none" stroke="grey" stroke-width="2" d="M265.92,-143.79C271.2,-125.75 280.02,-96.66 289,-72 292.18,-63.25 295.97,-53.83 299.51,-45.39"/>
<polygon fill="grey" stroke="grey" stroke-width="2" points="302.79,-46.61 303.48,-36.03 296.35,-43.87 302.79,-46.61"/>
</g>
<!-- 9 -->
<g id="node10" class="node">
<title>9</title>
<path fill="none" stroke="#d86e56" stroke-width="2" d="M395.5,-108C395.5,-108 310.5,-108 310.5,-108 304.5,-108 298.5,-102 298.5,-96 298.5,-96 298.5,-84 298.5,-84 298.5,-78 304.5,-72 310.5,-72 310.5,-72 395.5,-72 395.5,-72 401.5,-72 407.5,-78 407.5,-84 407.5,-84 407.5,-96 407.5,-96 407.5,-102 401.5,-108 395.5,-108"/>
<text text-anchor="middle" x="353" y="-87.5" font-family="sans" font-size="10.00">build_seurat5shiny</text>
</g>
<!-- 7&#45;&gt;9 -->
<g id="edge17" class="edge">
<title>7&#45;&gt;9</title>
<path fill="none" stroke="grey" stroke-width="2" d="M283.74,-143.7C295.44,-134.8 309.86,-123.82 322.51,-114.2"/>
<polygon fill="grey" stroke="grey" stroke-width="2" points="324.68,-116.94 330.52,-108.1 320.44,-111.37 324.68,-116.94"/>
</g>
<!-- 8&#45;&gt;0 -->
<g id="edge2" class="edge">
<title>8&#45;&gt;0</title>
<path fill="none" stroke="grey" stroke-width="2" d="M178.82,-215.77C164.17,-207.28 149.2,-195.48 141,-180 133.51,-165.86 132.59,-157.61 141,-144 159.81,-113.57 183.48,-128.22 213,-108 240.79,-88.97 268.88,-62.56 287.81,-43.46"/>
<polygon fill="grey" stroke="grey" stroke-width="2" points="290.36,-45.87 294.85,-36.27 285.35,-40.97 290.36,-45.87"/>
</g>
<!-- 8&#45;&gt;7 -->
<g id="edge15" class="edge">
<title>8&#45;&gt;7</title>
<path fill="none" stroke="grey" stroke-width="2" d="M229.38,-215.7C234.26,-207.56 240.19,-197.69 245.58,-188.7"/>
<polygon fill="grey" stroke="grey" stroke-width="2" points="248.59,-190.48 250.74,-180.1 242.59,-186.88 248.59,-190.48"/>
</g>
<!-- 8&#45;&gt;9 -->
<g id="edge18" class="edge">
<title>8&#45;&gt;9</title>
<path fill="none" stroke="grey" stroke-width="2" d="M267.06,-231.63C304.83,-227.71 355.21,-215.58 381,-180 394.62,-161.21 384.22,-135.57 372.42,-116.63"/>
<polygon fill="grey" stroke="grey" stroke-width="2" points="375.26,-114.58 366.8,-108.19 369.43,-118.46 375.26,-114.58"/>
</g>
<!-- 9&#45;&gt;0 -->
<g id="edge10" class="edge">
<title>9&#45;&gt;0</title>
<path fill="none" stroke="grey" stroke-width="2" d="M342.62,-71.7C337.74,-63.56 331.81,-53.69 326.42,-44.7"/>
<polygon fill="grey" stroke="grey" stroke-width="2" points="329.41,-42.88 321.26,-36.1 323.41,-46.48 329.41,-42.88"/>
</g>
<!-- 10 -->
<g id="node11" class="node">
<title>10</title>
<path fill="none" stroke="#56d863" stroke-width="2" d="M763.5,-252C763.5,-252 674.5,-252 674.5,-252 668.5,-252 662.5,-246 662.5,-240 662.5,-240 662.5,-228 662.5,-228 662.5,-222 668.5,-216 674.5,-216 674.5,-216 763.5,-216 763.5,-216 769.5,-216 775.5,-222 775.5,-228 775.5,-228 775.5,-240 775.5,-240 775.5,-246 769.5,-252 763.5,-252"/>
<text text-anchor="middle" x="719" y="-231.5" font-family="sans" font-size="10.00">run_cellranger_aggr</text>
</g>
<!-- 10&#45;&gt;0 -->
<g id="edge7" class="edge">
<title>10&#45;&gt;0</title>
<path fill="none" stroke="grey" stroke-width="2" d="M723.03,-215.66C726.48,-196.16 728.72,-164.54 713,-144 667.66,-84.75 438.95,-40.5 348.19,-25.01"/>
<polygon fill="grey" stroke="grey" stroke-width="2" points="348.52,-21.52 338.08,-23.31 347.36,-28.42 348.52,-21.52"/>
</g>
<!-- 11&#45;&gt;10 -->
<g id="edge19" class="edge">
<title>11&#45;&gt;10</title>
<path fill="none" stroke="grey" stroke-width="2" d="M681.36,-287.7C687.23,-279.47 694.37,-269.48 700.84,-260.42"/>
<polygon fill="grey" stroke="grey" stroke-width="2" points="703.82,-262.28 706.78,-252.1 698.12,-258.21 703.82,-262.28"/>
</g>
</g>
</svg>
